<mxfile host="app.diagrams.net" agent="Mozilla/5.0 (Windows NT 10.0; Win64; x64) AppleWebKit/537.36 (KHTML, like Gecko) Chrome/138.0.0.0 Safari/537.36" version="28.0.7">
  <diagram name="Page-1" id="dhtzTBUNiI1AaXfdEzQa">
    <mxGraphModel grid="1" page="1" gridSize="10" guides="1" tooltips="1" connect="1" arrows="1" fold="1" pageScale="1" pageWidth="827" pageHeight="1169" background="none" math="0" shadow="0">
      <root>
        <mxCell id="0" />
        <mxCell id="1" parent="0" />
        <mxCell id="KLXrmqY02s_AY2UNdJyc-41" value="" style="whiteSpace=wrap;html=1;fillColor=#FFEF78;strokeColor=#d79b00;gradientColor=light-dark(#ffa500, #ffb62f);" vertex="1" parent="1">
          <mxGeometry x="929.12" y="108.5" width="360" height="241.5" as="geometry" />
        </mxCell>
        <mxCell id="KLXrmqY02s_AY2UNdJyc-10" value="" style="whiteSpace=wrap;html=1;fillColor=#f5f5f5;strokeColor=#666666;gradientColor=#b3b3b3;" vertex="1" parent="1">
          <mxGeometry x="-28" y="162" width="288" height="538" as="geometry" />
        </mxCell>
        <mxCell id="KLXrmqY02s_AY2UNdJyc-8" value="" style="whiteSpace=wrap;html=1;fillColor=#dae8fc;strokeColor=#6c8ebf;gradientColor=#7ea6e0;" vertex="1" parent="1">
          <mxGeometry x="290" y="580" width="860" height="303" as="geometry" />
        </mxCell>
        <mxCell id="KLXrmqY02s_AY2UNdJyc-6" value="" style="whiteSpace=wrap;html=1;fillColor=#e6d0de;strokeColor=#996185;gradientColor=#d5739d;" vertex="1" parent="1">
          <mxGeometry x="545" y="110" width="350" height="238" as="geometry" />
        </mxCell>
        <mxCell id="knXX4pM0obj0YQFiCbRJ-9" value="Serveurs&lt;div&gt;&lt;span style=&quot;font-weight: normal;&quot;&gt;172.16.10.0/24&lt;/span&gt;&lt;/div&gt;" style="text;strokeColor=none;align=center;fillColor=none;html=1;verticalAlign=middle;whiteSpace=wrap;rounded=0;fontStyle=1" vertex="1" parent="1">
          <mxGeometry x="288.5" y="582" width="90" height="30" as="geometry" />
        </mxCell>
        <mxCell id="DMSO7XMmkQEsV05gbGDc-14" value="" style="edgeStyle=elbowEdgeStyle;html=1;elbow=horizontal;rounded=0;endArrow=none;labelBackgroundColor=none;fontColor=default;strokeColor=#0B4D6A;" edge="1" parent="1">
          <mxGeometry relative="1" as="geometry">
            <mxPoint x="176" y="244" as="targetPoint" />
            <mxPoint x="176" y="244" as="sourcePoint" />
          </mxGeometry>
        </mxCell>
        <mxCell id="KLXrmqY02s_AY2UNdJyc-22" value="&lt;div&gt;WINSRVGUI01&lt;/div&gt;ADDS&lt;div&gt;DNS&lt;/div&gt;&lt;div&gt;DHCP&lt;/div&gt;&lt;div&gt;172.16.10.1&lt;/div&gt;" style="text;strokeColor=none;align=center;fillColor=none;html=1;verticalAlign=middle;whiteSpace=wrap;rounded=0;fontColor=#330000;" vertex="1" parent="1">
          <mxGeometry x="489.25" y="788" width="60" height="60" as="geometry" />
        </mxCell>
        <mxCell id="KLXrmqY02s_AY2UNdJyc-7" value="&lt;b&gt;EmployÃ©s&lt;/b&gt;&lt;div&gt;172.16.10.0/24&lt;/div&gt;" style="text;strokeColor=none;align=center;fillColor=none;html=1;verticalAlign=middle;whiteSpace=wrap;rounded=0;fontColor=#330000;" vertex="1" parent="1">
          <mxGeometry x="558" y="111.5" width="60" height="30" as="geometry" />
        </mxCell>
        <mxCell id="KLXrmqY02s_AY2UNdJyc-11" value="&lt;b&gt;DMZ&lt;/b&gt;&lt;div&gt;172.20.10.0/24&lt;/div&gt;" style="text;strokeColor=none;align=center;fillColor=none;html=1;verticalAlign=middle;whiteSpace=wrap;rounded=0;fontColor=#330000;" vertex="1" parent="1">
          <mxGeometry x="72" y="178" width="60" height="30" as="geometry" />
        </mxCell>
        <mxCell id="KLXrmqY02s_AY2UNdJyc-13" value="PC Administration&lt;div&gt;172.16.20.1&lt;/div&gt;" style="text;strokeColor=none;align=center;fillColor=none;html=1;verticalAlign=middle;whiteSpace=wrap;rounded=0;fontColor=#330000;" vertex="1" parent="1">
          <mxGeometry x="965.12" y="148.5" width="101" height="30" as="geometry" />
        </mxCell>
        <mxCell id="DMSO7XMmkQEsV05gbGDc-28" value="" style="image;html=1;image=img/lib/clip_art/networking/Firewall_128x128.png;imageBorder=none;imageBackground=light-dark(#FFFFFF,#FF9933);" vertex="1" parent="1">
          <mxGeometry x="359" y="393.5" width="80" height="80" as="geometry" />
        </mxCell>
        <mxCell id="KLXrmqY02s_AY2UNdJyc-25" value="SRVWINCORE01&lt;div&gt;ADDS&lt;/div&gt;&lt;div&gt;172.16.10.2&lt;/div&gt;" style="text;strokeColor=none;align=center;fillColor=none;html=1;verticalAlign=middle;whiteSpace=wrap;rounded=0;fontColor=#330000;" vertex="1" parent="1">
          <mxGeometry x="344.5" y="788" width="60" height="30" as="geometry" />
        </mxCell>
        <mxCell id="knXX4pM0obj0YQFiCbRJ-13" value="&lt;div&gt;LINSRV01&lt;/div&gt;Glpi&lt;div&gt;172.16.10.3&lt;/div&gt;" style="text;strokeColor=none;align=center;fillColor=none;html=1;verticalAlign=middle;whiteSpace=wrap;rounded=0;" vertex="1" parent="1">
          <mxGeometry x="625" y="788" width="60" height="30" as="geometry" />
        </mxCell>
        <mxCell id="KLXrmqY02s_AY2UNdJyc-27" value="SRVWINCORE02&lt;div&gt;ADDS&lt;/div&gt;&lt;div&gt;172.16.10.5&lt;/div&gt;" style="text;strokeColor=none;align=center;fillColor=none;html=1;verticalAlign=middle;whiteSpace=wrap;rounded=0;fontColor=#330000;" vertex="1" parent="1">
          <mxGeometry x="764.6199999999999" y="803" width="60" height="30" as="geometry" />
        </mxCell>
        <mxCell id="knXX4pM0obj0YQFiCbRJ-17" value="WEB&lt;div&gt;172.20.10.2&lt;/div&gt;" style="text;strokeColor=none;align=center;fillColor=none;html=1;verticalAlign=middle;whiteSpace=wrap;rounded=0;" vertex="1" parent="1">
          <mxGeometry x="42.629999999999995" y="481.75" width="60" height="30" as="geometry" />
        </mxCell>
        <mxCell id="knXX4pM0obj0YQFiCbRJ-18" value="IPBX&lt;div&gt;172.20.10.3&lt;/div&gt;" style="text;strokeColor=none;align=center;fillColor=none;html=1;verticalAlign=middle;whiteSpace=wrap;rounded=0;" vertex="1" parent="1">
          <mxGeometry x="38.260000000000005" y="641" width="60" height="30" as="geometry" />
        </mxCell>
        <mxCell id="knXX4pM0obj0YQFiCbRJ-20" value="&lt;div&gt;Mail&lt;/div&gt;&lt;div&gt;172.20.10.10&lt;/div&gt;" style="text;strokeColor=none;align=center;fillColor=none;html=1;verticalAlign=middle;whiteSpace=wrap;rounded=0;" vertex="1" parent="1">
          <mxGeometry x="20.75" y="331.5" width="110" height="30" as="geometry" />
        </mxCell>
        <mxCell id="KLXrmqY02s_AY2UNdJyc-36" value="&lt;b&gt;DMZ :&amp;nbsp;&lt;/b&gt;&lt;div&gt;172.20.10.254&lt;/div&gt;" style="text;strokeColor=none;align=center;fillColor=none;html=1;verticalAlign=middle;whiteSpace=wrap;rounded=0;fontColor=#000000;" vertex="1" parent="1">
          <mxGeometry x="289" y="390" width="60" height="30" as="geometry" />
        </mxCell>
        <mxCell id="KLXrmqY02s_AY2UNdJyc-37" value="&lt;b&gt;WAN :&amp;nbsp;&lt;/b&gt;&lt;div&gt;192.168.1.2&lt;/div&gt;" style="text;strokeColor=none;align=center;fillColor=none;html=1;verticalAlign=middle;whiteSpace=wrap;rounded=0;fontColor=#000000;" vertex="1" parent="1">
          <mxGeometry x="330" y="340" width="60" height="30" as="geometry" />
        </mxCell>
        <mxCell id="KLXrmqY02s_AY2UNdJyc-38" style="edgeStyle=none;rounded=0;orthogonalLoop=1;jettySize=auto;html=1;exitX=0.5;exitY=0;exitDx=0;exitDy=0;entryX=0.5;entryY=1;entryDx=0;entryDy=0;strokeColor=light-dark(#000000,#FFFFFF);endArrow=none;startFill=0;" edge="1" parent="1" source="DMSO7XMmkQEsV05gbGDc-28" target="6XwTecmC9WguflEXOo0B-67">
          <mxGeometry relative="1" as="geometry">
            <mxPoint x="399" y="154.93999999999983" as="targetPoint" />
          </mxGeometry>
        </mxCell>
        <mxCell id="DMSO7XMmkQEsV05gbGDc-36" value="&lt;div&gt;LINSRV03&lt;/div&gt;Zabbix&lt;div&gt;172.16.10.8&lt;/div&gt;" style="text;strokeColor=none;align=center;fillColor=none;html=1;verticalAlign=middle;whiteSpace=wrap;rounded=0;" vertex="1" parent="1">
          <mxGeometry x="1049.49" y="803" width="60" height="30" as="geometry" />
        </mxCell>
        <mxCell id="KLXrmqY02s_AY2UNdJyc-40" value="&lt;div&gt;&lt;b&gt;Ecotech Solutions&lt;/b&gt;&lt;/div&gt;" style="text;strokeColor=none;align=center;fillColor=none;html=1;verticalAlign=middle;whiteSpace=wrap;rounded=0;fontColor=#FFFFFF;" vertex="1" parent="1">
          <mxGeometry x="426.13" width="60" height="30" as="geometry" />
        </mxCell>
        <mxCell id="KLXrmqY02s_AY2UNdJyc-43" value="&lt;div&gt;&lt;b&gt;DSI&lt;/b&gt;&lt;/div&gt;&lt;div&gt;172.16.10.0/24&lt;/div&gt;" style="text;strokeColor=none;align=center;fillColor=none;html=1;verticalAlign=middle;whiteSpace=wrap;rounded=0;fontColor=#330000;" vertex="1" parent="1">
          <mxGeometry x="949.12" y="109" width="46" height="30" as="geometry" />
        </mxCell>
        <mxCell id="KLXrmqY02s_AY2UNdJyc-67" value="&lt;div&gt;&lt;b&gt;LAN :&lt;/b&gt;&lt;/div&gt;172.16.10.254" style="text;strokeColor=none;align=center;fillColor=none;html=1;verticalAlign=middle;whiteSpace=wrap;rounded=0;fontColor=#373737;" vertex="1" parent="1">
          <mxGeometry x="439.13" y="390" width="80" height="30" as="geometry" />
        </mxCell>
        <mxCell id="BuvltBzs99Ln0fURTy55-2" value="&lt;div&gt;GLPI&lt;/div&gt;&lt;div&gt;172.16.10.12&lt;/div&gt;" style="text;strokeColor=none;align=center;fillColor=none;html=1;verticalAlign=middle;whiteSpace=wrap;rounded=0;fontColor=#330000;" vertex="1" parent="1">
          <mxGeometry x="912.5" y="803" width="60" height="30" as="geometry" />
        </mxCell>
        <mxCell id="6XwTecmC9WguflEXOo0B-40" value="" style="edgeStyle=orthogonalEdgeStyle;rounded=0;orthogonalLoop=1;jettySize=auto;html=1;endArrow=none;endFill=0;strokeColor=#000000;" edge="1" parent="1" source="GcDVAcKpA0H9h5Mhh4xD-1" target="gq7ziDbiQRn9gY-6pnFD-7">
          <mxGeometry relative="1" as="geometry" />
        </mxCell>
        <mxCell id="6XwTecmC9WguflEXOo0B-41" value="" style="edgeStyle=orthogonalEdgeStyle;rounded=0;orthogonalLoop=1;jettySize=auto;html=1;endArrow=none;endFill=0;strokeColor=#000000;" edge="1" parent="1" source="GcDVAcKpA0H9h5Mhh4xD-1" target="6XwTecmC9WguflEXOo0B-30">
          <mxGeometry relative="1" as="geometry" />
        </mxCell>
        <mxCell id="6XwTecmC9WguflEXOo0B-62" value="" style="edgeStyle=orthogonalEdgeStyle;rounded=0;orthogonalLoop=1;jettySize=auto;html=1;entryX=1;entryY=0.5;entryDx=0;entryDy=0;endArrow=none;endFill=0;strokeColor=light-dark(#000000, #121212);" edge="1" parent="1" source="GcDVAcKpA0H9h5Mhh4xD-1" target="DMSO7XMmkQEsV05gbGDc-28">
          <mxGeometry relative="1" as="geometry">
            <mxPoint x="560" y="434" as="targetPoint" />
          </mxGeometry>
        </mxCell>
        <mxCell id="GcDVAcKpA0H9h5Mhh4xD-1" value="" style="image;html=1;image=img/lib/clip_art/networking/Switch_128x128.png" vertex="1" parent="1">
          <mxGeometry x="694.75" y="393" width="80" height="80" as="geometry" />
        </mxCell>
        <mxCell id="gq7ziDbiQRn9gY-6pnFD-2" value="" style="image;html=1;image=img/lib/clip_art/computers/Server_Tower_128x128.png" vertex="1" parent="1">
          <mxGeometry x="341.38" y="708" width="66.25" height="70" as="geometry" />
        </mxCell>
        <mxCell id="gq7ziDbiQRn9gY-6pnFD-3" value="" style="image;html=1;image=img/lib/clip_art/computers/Laptop_128x128.png" vertex="1" parent="1">
          <mxGeometry x="598" y="180" width="80" height="80" as="geometry" />
        </mxCell>
        <mxCell id="6XwTecmC9WguflEXOo0B-3" value="" style="image;html=1;image=img/lib/clip_art/computers/Server_Tower_128x128.png" vertex="1" parent="1">
          <mxGeometry x="486.13" y="708" width="66.25" height="70" as="geometry" />
        </mxCell>
        <mxCell id="6XwTecmC9WguflEXOo0B-4" value="" style="image;html=1;image=img/lib/clip_art/computers/Server_Tower_128x128.png" vertex="1" parent="1">
          <mxGeometry x="626.25" y="708" width="66.25" height="70" as="geometry" />
        </mxCell>
        <mxCell id="6XwTecmC9WguflEXOo0B-5" value="" style="image;html=1;image=img/lib/clip_art/computers/Server_Tower_128x128.png" vertex="1" parent="1">
          <mxGeometry x="761.5" y="710" width="66.25" height="70" as="geometry" />
        </mxCell>
        <mxCell id="6XwTecmC9WguflEXOo0B-6" value="" style="image;html=1;image=img/lib/clip_art/computers/Server_Tower_128x128.png" vertex="1" parent="1">
          <mxGeometry x="1046.37" y="710" width="66.25" height="70" as="geometry" />
        </mxCell>
        <mxCell id="6XwTecmC9WguflEXOo0B-7" value="" style="image;html=1;image=img/lib/clip_art/computers/Server_Tower_128x128.png" vertex="1" parent="1">
          <mxGeometry x="915.6199999999999" y="710" width="66.25" height="70" as="geometry" />
        </mxCell>
        <mxCell id="gq7ziDbiQRn9gY-6pnFD-5" value="" style="image;html=1;image=img/lib/clip_art/computers/Laptop_128x128.png" vertex="1" parent="1">
          <mxGeometry x="785" y="176.5" width="80" height="80" as="geometry" />
        </mxCell>
        <mxCell id="6XwTecmC9WguflEXOo0B-19" value="" style="edgeStyle=orthogonalEdgeStyle;rounded=0;orthogonalLoop=1;jettySize=auto;html=1;entryX=0.5;entryY=1;entryDx=0;entryDy=0;endArrow=none;endFill=0;" edge="1" parent="1" source="gq7ziDbiQRn9gY-6pnFD-7" target="gq7ziDbiQRn9gY-6pnFD-3">
          <mxGeometry relative="1" as="geometry">
            <mxPoint x="615" y="308" as="targetPoint" />
          </mxGeometry>
        </mxCell>
        <mxCell id="6XwTecmC9WguflEXOo0B-21" value="" style="edgeStyle=orthogonalEdgeStyle;rounded=0;orthogonalLoop=1;jettySize=auto;html=1;endArrow=none;endFill=0;entryX=0.5;entryY=1;entryDx=0;entryDy=0;" edge="1" parent="1" source="gq7ziDbiQRn9gY-6pnFD-7" target="gq7ziDbiQRn9gY-6pnFD-5">
          <mxGeometry relative="1" as="geometry">
            <mxPoint x="895" y="308" as="targetPoint" />
          </mxGeometry>
        </mxCell>
        <mxCell id="gq7ziDbiQRn9gY-6pnFD-7" value="" style="image;html=1;image=img/lib/clip_art/networking/Switch_128x128.png" vertex="1" parent="1">
          <mxGeometry x="695" y="268" width="80" height="80" as="geometry" />
        </mxCell>
        <mxCell id="6XwTecmC9WguflEXOo0B-15" value="" style="image;html=1;image=img/lib/clip_art/computers/Server_Tower_128x128.png" vertex="1" parent="1">
          <mxGeometry x="42.629999999999995" y="398.25" width="66.25" height="70" as="geometry" />
        </mxCell>
        <mxCell id="6XwTecmC9WguflEXOo0B-16" value="" style="image;html=1;image=img/lib/clip_art/computers/Server_Tower_128x128.png" vertex="1" parent="1">
          <mxGeometry x="42.38000000000001" y="557" width="66.25" height="70" as="geometry" />
        </mxCell>
        <mxCell id="6XwTecmC9WguflEXOo0B-17" value="" style="image;html=1;image=img/lib/clip_art/computers/Server_Tower_128x128.png" vertex="1" parent="1">
          <mxGeometry x="42.620000000000005" y="248" width="66.25" height="70" as="geometry" />
        </mxCell>
        <mxCell id="6XwTecmC9WguflEXOo0B-28" value="" style="edgeStyle=orthogonalEdgeStyle;rounded=0;orthogonalLoop=1;jettySize=auto;html=1;endArrow=none;endFill=0;entryX=0.5;entryY=1;entryDx=0;entryDy=0;" edge="1" parent="1" source="6XwTecmC9WguflEXOo0B-30" target="6XwTecmC9WguflEXOo0B-29">
          <mxGeometry relative="1" as="geometry">
            <mxPoint x="1289.12" y="318" as="targetPoint" />
          </mxGeometry>
        </mxCell>
        <mxCell id="6XwTecmC9WguflEXOo0B-29" value="" style="image;html=1;image=img/lib/clip_art/computers/Laptop_128x128.png" vertex="1" parent="1">
          <mxGeometry x="1179.12" y="176.5" width="80" height="80" as="geometry" />
        </mxCell>
        <mxCell id="6XwTecmC9WguflEXOo0B-30" value="" style="image;html=1;image=img/lib/clip_art/networking/Switch_128x128.png" vertex="1" parent="1">
          <mxGeometry x="1086" y="260" width="80" height="80" as="geometry" />
        </mxCell>
        <mxCell id="6XwTecmC9WguflEXOo0B-31" value="" style="edgeStyle=orthogonalEdgeStyle;rounded=0;orthogonalLoop=1;jettySize=auto;html=1;entryX=0.5;entryY=1;entryDx=0;entryDy=0;endArrow=none;endFill=0;" edge="1" parent="1" source="6XwTecmC9WguflEXOo0B-30" target="6XwTecmC9WguflEXOo0B-32">
          <mxGeometry relative="1" as="geometry">
            <mxPoint x="1009.1199999999999" y="318" as="targetPoint" />
          </mxGeometry>
        </mxCell>
        <mxCell id="6XwTecmC9WguflEXOo0B-32" value="" style="image;html=1;image=img/lib/clip_art/computers/Laptop_128x128.png" vertex="1" parent="1">
          <mxGeometry x="988.3699999999999" y="176.5" width="80" height="80" as="geometry" />
        </mxCell>
        <mxCell id="6XwTecmC9WguflEXOo0B-44" value="" style="edgeStyle=orthogonalEdgeStyle;rounded=0;orthogonalLoop=1;jettySize=auto;html=1;entryX=0.5;entryY=0;entryDx=0;entryDy=0;endArrow=none;endFill=0;" edge="1" parent="1" target="6XwTecmC9WguflEXOo0B-6">
          <mxGeometry relative="1" as="geometry">
            <mxPoint x="773.5" y="610.0769230769231" as="sourcePoint" />
          </mxGeometry>
        </mxCell>
        <mxCell id="6XwTecmC9WguflEXOo0B-45" value="" style="edgeStyle=orthogonalEdgeStyle;rounded=0;orthogonalLoop=1;jettySize=auto;html=1;entryX=0.5;entryY=0;entryDx=0;entryDy=0;endArrow=none;endFill=0;" edge="1" parent="1" target="6XwTecmC9WguflEXOo0B-7">
          <mxGeometry relative="1" as="geometry">
            <mxPoint x="773.5" y="610.0769230769231" as="sourcePoint" />
          </mxGeometry>
        </mxCell>
        <mxCell id="6XwTecmC9WguflEXOo0B-47" value="" style="edgeStyle=orthogonalEdgeStyle;rounded=0;orthogonalLoop=1;jettySize=auto;html=1;entryX=0.5;entryY=0;entryDx=0;entryDy=0;endArrow=none;endFill=0;" edge="1" parent="1" target="gq7ziDbiQRn9gY-6pnFD-2">
          <mxGeometry relative="1" as="geometry">
            <mxPoint x="573.5" y="610" as="targetPoint" />
            <mxPoint x="693.5" y="610.0769230769231" as="sourcePoint" />
          </mxGeometry>
        </mxCell>
        <mxCell id="6XwTecmC9WguflEXOo0B-48" value="" style="edgeStyle=orthogonalEdgeStyle;rounded=0;orthogonalLoop=1;jettySize=auto;html=1;entryX=0.5;entryY=0;entryDx=0;entryDy=0;endArrow=none;endFill=0;" edge="1" parent="1" target="6XwTecmC9WguflEXOo0B-3">
          <mxGeometry relative="1" as="geometry">
            <mxPoint x="693.5" y="610.0769230769231" as="sourcePoint" />
          </mxGeometry>
        </mxCell>
        <mxCell id="6XwTecmC9WguflEXOo0B-49" value="" style="edgeStyle=orthogonalEdgeStyle;rounded=0;orthogonalLoop=1;jettySize=auto;html=1;endArrow=none;endFill=0;entryX=0.5;entryY=0;entryDx=0;entryDy=0;" edge="1" parent="1" target="6XwTecmC9WguflEXOo0B-4">
          <mxGeometry relative="1" as="geometry">
            <mxPoint x="693.5" y="610.0769230769231" as="sourcePoint" />
          </mxGeometry>
        </mxCell>
        <mxCell id="6XwTecmC9WguflEXOo0B-50" value="" style="edgeStyle=orthogonalEdgeStyle;rounded=0;orthogonalLoop=1;jettySize=auto;html=1;endArrow=none;endFill=0;entryX=0.5;entryY=0;entryDx=0;entryDy=0;" edge="1" parent="1" target="6XwTecmC9WguflEXOo0B-5">
          <mxGeometry relative="1" as="geometry">
            <mxPoint x="794.5" y="700" as="targetPoint" />
            <Array as="points">
              <mxPoint x="794.5" y="610" />
            </Array>
            <mxPoint x="773.5" y="610.0769230769231" as="sourcePoint" />
          </mxGeometry>
        </mxCell>
        <mxCell id="6XwTecmC9WguflEXOo0B-64" value="" style="edgeStyle=orthogonalEdgeStyle;rounded=0;orthogonalLoop=1;jettySize=auto;html=1;endArrow=none;endFill=0;strokeColor=#000000;" edge="1" parent="1" source="6XwTecmC9WguflEXOo0B-43" target="GcDVAcKpA0H9h5Mhh4xD-1">
          <mxGeometry relative="1" as="geometry" />
        </mxCell>
        <mxCell id="6XwTecmC9WguflEXOo0B-43" value="" style="image;html=1;image=img/lib/clip_art/networking/Switch_128x128.png" vertex="1" parent="1">
          <mxGeometry x="694.5" y="570" width="80" height="80" as="geometry" />
        </mxCell>
        <mxCell id="gq7ziDbiQRn9gY-6pnFD-9" value="&lt;div&gt;DHCP&lt;/div&gt;&lt;div&gt;Plage 172.16.10.20 - 172.16.10.250&amp;nbsp;&lt;/div&gt;" style="text;html=1;align=center;verticalAlign=middle;whiteSpace=wrap;rounded=0;" vertex="1" parent="1">
          <mxGeometry x="638" y="118" width="207" height="30" as="geometry" />
        </mxCell>
        <mxCell id="6XwTecmC9WguflEXOo0B-54" value="" style="edgeStyle=orthogonalEdgeStyle;rounded=0;orthogonalLoop=1;jettySize=auto;html=1;entryX=0;entryY=0.5;entryDx=0;entryDy=0;endArrow=none;endFill=0;strokeColor=#000000;" edge="1" parent="1" source="6XwTecmC9WguflEXOo0B-53" target="DMSO7XMmkQEsV05gbGDc-28">
          <mxGeometry relative="1" as="geometry" />
        </mxCell>
        <mxCell id="6XwTecmC9WguflEXOo0B-56" value="" style="edgeStyle=orthogonalEdgeStyle;rounded=0;orthogonalLoop=1;jettySize=auto;html=1;entryX=1;entryY=0.5;entryDx=0;entryDy=0;endArrow=none;endFill=0;" edge="1" parent="1" source="6XwTecmC9WguflEXOo0B-53" target="6XwTecmC9WguflEXOo0B-17">
          <mxGeometry relative="1" as="geometry">
            <mxPoint x="228" y="273" as="targetPoint" />
          </mxGeometry>
        </mxCell>
        <mxCell id="6XwTecmC9WguflEXOo0B-58" value="" style="edgeStyle=orthogonalEdgeStyle;rounded=0;orthogonalLoop=1;jettySize=auto;html=1;entryX=1;entryY=0.5;entryDx=0;entryDy=0;endArrow=none;endFill=0;" edge="1" parent="1" source="6XwTecmC9WguflEXOo0B-53" target="6XwTecmC9WguflEXOo0B-15">
          <mxGeometry relative="1" as="geometry">
            <mxPoint x="228" y="593" as="targetPoint" />
          </mxGeometry>
        </mxCell>
        <mxCell id="6XwTecmC9WguflEXOo0B-60" value="" style="edgeStyle=orthogonalEdgeStyle;rounded=0;orthogonalLoop=1;jettySize=auto;html=1;entryX=1;entryY=0.5;entryDx=0;entryDy=0;endArrow=none;endFill=0;" edge="1" parent="1" source="6XwTecmC9WguflEXOo0B-53" target="6XwTecmC9WguflEXOo0B-16">
          <mxGeometry relative="1" as="geometry">
            <mxPoint x="228" y="593" as="targetPoint" />
          </mxGeometry>
        </mxCell>
        <mxCell id="6XwTecmC9WguflEXOo0B-53" value="" style="image;html=1;image=img/lib/clip_art/networking/Switch_128x128.png" vertex="1" parent="1">
          <mxGeometry x="170" y="393.5" width="80" height="80" as="geometry" />
        </mxCell>
        <mxCell id="6XwTecmC9WguflEXOo0B-66" value="" style="edgeStyle=orthogonalEdgeStyle;rounded=0;orthogonalLoop=1;jettySize=auto;html=1;endArrow=none;endFill=0;" edge="1" parent="1" source="6XwTecmC9WguflEXOo0B-67">
          <mxGeometry relative="1" as="geometry">
            <mxPoint x="399.1300000000001" y="-19.960000000000036" as="targetPoint" />
          </mxGeometry>
        </mxCell>
        <mxCell id="6XwTecmC9WguflEXOo0B-74" value="" style="edgeStyle=orthogonalEdgeStyle;rounded=0;orthogonalLoop=1;jettySize=auto;html=1;entryX=0.5;entryY=1;entryDx=0;entryDy=0;endArrow=none;endFill=0;" edge="1" parent="1" source="6XwTecmC9WguflEXOo0B-67" target="6XwTecmC9WguflEXOo0B-75">
          <mxGeometry relative="1" as="geometry">
            <mxPoint x="399" y="-150" as="targetPoint" />
          </mxGeometry>
        </mxCell>
        <mxCell id="6XwTecmC9WguflEXOo0B-67" value="" style="image;html=1;image=img/lib/clip_art/networking/Firewall_128x128.png;imageBorder=none;imageBackground=light-dark(#FFFFFF,#FF9933);" vertex="1" parent="1">
          <mxGeometry x="359.13" y="-80" width="80" height="80" as="geometry" />
        </mxCell>
        <mxCell id="6XwTecmC9WguflEXOo0B-69" value="&lt;b&gt;WAN :&amp;nbsp;&lt;/b&gt;&lt;div&gt;192.168.1.3&lt;/div&gt;" style="text;strokeColor=none;align=center;fillColor=none;html=1;verticalAlign=middle;whiteSpace=wrap;rounded=0;fontColor=#000000;" vertex="1" parent="1">
          <mxGeometry x="335" width="60" height="30" as="geometry" />
        </mxCell>
        <mxCell id="6XwTecmC9WguflEXOo0B-72" value="" style="edgeStyle=orthogonalEdgeStyle;rounded=0;orthogonalLoop=1;jettySize=auto;html=1;endArrow=none;endFill=0;entryX=0.5;entryY=1;entryDx=0;entryDy=0;" edge="1" parent="1" source="6XwTecmC9WguflEXOo0B-70" target="6XwTecmC9WguflEXOo0B-67">
          <mxGeometry relative="1" as="geometry">
            <Array as="points">
              <mxPoint x="399" y="68" />
            </Array>
          </mxGeometry>
        </mxCell>
        <mxCell id="6XwTecmC9WguflEXOo0B-70" value="" style="image;aspect=fixed;perimeter=ellipsePerimeter;html=1;align=center;shadow=0;dashed=0;spacingTop=3;image=img/lib/active_directory/internet_cloud.svg;" vertex="1" parent="1">
          <mxGeometry x="108.88" y="9.999999999999998" width="184" height="115.92" as="geometry" />
        </mxCell>
        <mxCell id="6XwTecmC9WguflEXOo0B-71" value="&lt;font style=&quot;font-size: 18px;&quot;&gt;&lt;b&gt;Internet&lt;/b&gt;&lt;/font&gt;" style="text;strokeColor=none;align=center;fillColor=none;html=1;verticalAlign=middle;whiteSpace=wrap;rounded=0;fontColor=#330000;" vertex="1" parent="1">
          <mxGeometry x="153.13" y="44.18000000000001" width="95.5" height="47.56" as="geometry" />
        </mxCell>
        <mxCell id="6XwTecmC9WguflEXOo0B-75" value="" style="whiteSpace=wrap;html=1;fillColor=#e1d5e7;strokeColor=#9673a6;" vertex="1" parent="1">
          <mxGeometry x="339" y="-191" width="120" height="70" as="geometry" />
        </mxCell>
        <mxCell id="6XwTecmC9WguflEXOo0B-76" value="&lt;div&gt;&lt;b&gt;LAN&lt;/b&gt;&lt;/div&gt;&lt;div&gt;172.16.20.0/24&lt;/div&gt;" style="text;strokeColor=none;align=center;fillColor=none;html=1;verticalAlign=middle;whiteSpace=wrap;rounded=0;fontColor=#330000;" vertex="1" parent="1">
          <mxGeometry x="369.13" y="-171" width="60" height="30" as="geometry" />
        </mxCell>
      </root>
    </mxGraphModel>
  </diagram>
</mxfile>
